<svg version="1.0" xmlns="http://www.w3.org/2000/svg"
 width="64.000000pt" height="64.000000pt" viewBox="0 0 64.000000 64.000000"
 preserveAspectRatio="xMidYMid meet">

<g transform="translate(0.000000,64.000000) scale(0.100000,-0.100000)"
fill="#000000" stroke="none">
<path d="M43 613 c-18 -7 -16 -40 3 -47 9 -3 25 -6 37 -6 20 0 26 -14 55 -123
36 -137 38 -147 19 -147 -23 0 -50 -39 -50 -71 0 -17 9 -39 20 -51 20 -19 22
-19 44 -4 32 22 91 20 122 -4 14 -11 37 -20 52 -20 15 0 38 9 52 20 30 24 91
26 119 5 26 -19 34 -19 34 4 0 10 -7 22 -16 25 -9 3 -96 6 -195 6 -172 0 -179
1 -179 20 0 17 7 20 40 20 22 0 40 3 40 8 0 4 -21 85 -47 180 -41 153 -50 175
-70 183 -26 10 -60 11 -80 2z"/>
<path d="M356 610 c-118 -36 -118 -206 1 -239 92 -26 178 60 152 153 -10 35
-59 86 -84 86 -7 0 -19 2 -27 4 -7 2 -26 0 -42 -4z m44 -75 c0 -33 2 -35 35
-35 19 0 35 -4 35 -10 0 -5 -16 -10 -35 -10 -33 0 -35 -2 -35 -35 0 -19 -4
-35 -10 -35 -5 0 -10 16 -10 35 0 33 -2 35 -35 35 -19 0 -35 5 -35 10 0 6 16
10 35 10 33 0 35 2 35 35 0 19 5 35 10 35 6 0 10 -16 10 -35z"/>
<path d="M239 369 l35 -130 132 3 c78 2 138 7 144 14 6 6 24 58 39 116 31 115
29 128 -21 128 -24 0 -28 -4 -28 -27 0 -68 -73 -133 -150 -133 -77 0 -150 65
-150 133 0 20 -5 27 -18 27 -17 0 -16 -10 17 -131z"/>
<path d="M202 150 c-12 -5 -27 -21 -32 -35 -21 -55 30 -106 85 -85 52 20 52
100 0 120 -15 6 -27 10 -28 9 -1 0 -12 -4 -25 -9z m53 -60 c0 -18 -6 -26 -23
-28 -24 -4 -38 18 -28 44 3 9 15 14 28 12 17 -2 23 -10 23 -28z"/>
<path d="M432 150 c-49 -20 -48 -101 3 -120 55 -21 106 30 85 85 -7 19 -50 49
-63 44 -1 0 -12 -4 -25 -9z m53 -60 c0 -18 -6 -26 -23 -28 -24 -4 -38 18 -28
44 3 9 15 14 28 12 17 -2 23 -10 23 -28z"/>
</g>
</svg>